:SAMPLES-PER-SECOND 30
:FULLY-SPECIFIED
:DEGREES
113
root  21.02677803 38.07333398 -24.87688891 -4.625510216 -3.401489973 -2.203190088
lowerback  6.837520123 0.2040909976 3.343859911
upperback  3.076359987 0.4895470142 1.166939974
thorax  -0.6410660148 0.2640820146 -0.7111960053
lowerneck  -12.51200008 2.67670989 -0.8126659989
upperneck  -1.488899946 3.700579882 -1.485890031
head  1.665359974 1.80377996 -0.1404169947
lclavicle  0 -1.620099928e-014 -1.431250036e-014
lhumerus  -40.76789856 19.95050049 76.11750031
lradius  -3.35488949e-031 -1.101617243e-031 18.17819977
lwrist  -2.824900031e-030 -4.943575054e-030 11.32629967
lhand  -1.522208093e-030 -21.89089966 22.84740067
lfingers  90 7.125020027 -90
lthumb  90.61603193 7.755020578 85.4441456
rclavicle  0 -1.620099928e-014 -1.431250036e-014
rhumerus  -23.69829941 4.122469902 -87.91459656
rradius  3.057048151e-031 1.767286235e-031 30.03230095
rwrist  2.824900031e-030 -0 -11.98980045
rhand  1.570731925e-030 -25.9428997 18.57430077
rfingers  -90 -7.125020027 -90
rthumb  -89.60083768 -33.59330664 -89.2785978
rfemur  -4.30050993 4.984899998 28.54980087
rtibia  -0 0 30.64789963
rfoot  -4.717302328e-032 -20.6609993 -4.027349949
rtoes  -1.575397198 19.94038992 -85.38945295
lfemur  -23.77619934 1.366629958 -19.91460037
ltibia  -0 0 66.05870056
lfoot  -0 -6.521689892 9.3416996
ltoes  -3.695914299 -19.66929668 -100.8636129
114
root  21.049489 38.06866623 -24.53844416 -4.642970085 -3.754630089 -2.606220007
lowerback  7.025640011 0.2954109907 3.901819944
upperback  3.037460089 0.6571499705 1.252329946
thorax  -0.7723339796 0.3490700126 -0.949492991
lowerneck  -12.3448 2.723449945 -0.7081509829
upperneck  -1.259379983 3.756180048 -1.692469954
head  1.718880057 1.824090004 -0.2208700031
lclavicle  0 -1.620099928e-014 -1.431250036e-014
lhumerus  -41.70270157 20.35549927 75.52449799
lradius  -3.351986213e-031 -1.110419949e-031 18.32859993
lwrist  0 -4.237350046e-030 10.86750031
lhand  -1.522208093e-030 -21.89089966 22.84740067
lfingers  90 7.125020027 -90
lthumb  90.61603193 7.755020578 85.4441456
rclavicle  0 -1.620099928e-014 -1.431250036e-014
rhumerus  -22.91500092 4.774849892 -87.65019989
rradius  3.027913348e-031 1.816751164e-031 30.96380043
rwrist  0 7.062250077e-031 -10.86009979
rhand  1.570731925e-030 -25.9428997 18.57430077
rfingers  -90 -7.125020027 -90
rthumb  -89.60083768 -33.59330664 -89.2785978
rfemur  -3.468689919 4.963490009 28.95789909
rtibia  -0 0 30.25180054
rfoot  -4.718994051e-032 -20.7154007 -3.624000072
rtoes  -1.575397198 19.94038992 -85.38945295
lfemur  -24.53879929 1.108829975 -19.39550018
ltibia  -0 0 64.4056015
lfoot  -0 -7.329840183 8.73803997
ltoes  -3.695914299 -19.66929668 -100.8636129
115
root  21.06504515 38.06311239 -24.19111147 -4.702539921 -4.10943985 -2.638299942
lowerback  7.223959923 0.3884699941 3.998559952
upperback  3.015330076 0.7981449962 1.26304996
thorax  -0.8972430229 0.4175710082 -1.005360007
lowerneck  -12.16450024 2.627759933 -0.9747200012
upperneck  -1.084249973 3.665400028 -1.625069976
head  1.737529993 1.780339956 -0.1600909978
lclavicle  0 -1.620099928e-014 -1.431250036e-014
lhumerus  -42.67589951 20.73590088 74.98950195
lradius  -3.347978056e-031 -1.122446869e-031 18.53429985
lwrist  -2.824900031e-030 -2.118675023e-030 10.83940029
lhand  -1.522208093e-030 -21.89089966 22.84740067
lfingers  90 7.125020027 -90
lthumb  90.61603193 7.755020578 85.4441456
rclavicle  0 -1.620099928e-014 -1.431250036e-014
rhumerus  -22.28660011 6.365200043 -87.65249634
rradius  2.992704103e-031 1.874184139e-031 32.05690002
rwrist  2.824900031e-030 -1.412450015e-030 -11.60299969
rhand  1.570731925e-030 -25.9428997 18.57430077
rfingers  -90 -7.125020027 -90
rthumb  -89.60083768 -33.59330664 -89.2785978
rfemur  -2.533040047 4.723070145 28.92810059
rtibia  -0 0 29.71500015
rfoot  -7.084362223e-032 -20.84059906 -3.057369947
rtoes  -1.575397198 19.94038992 -85.38945295
lfemur  -25.06769943 0.8537610173 -19.28730011
ltibia  -0 0 62.50960159
lfoot  -0 -7.974020004 8.467780113
ltoes  -3.695914299 -19.66929668 -100.8636129
116
root  21.07273312 38.06377922 -23.83688829 -4.708179951 -4.468729973 -2.496710062
lowerback  7.25301981 0.4782840014 3.933979988
upperback  3.074350119 0.9110170007 1.168110013
thorax  -0.8467289805 0.4754509926 -1.075530052
lowerneck  -11.86240005 2.69678998 -1.332329988
upperneck  -1.252979994 3.787280083 -1.238330007
head  1.612300038 1.855990052 0.02196210064
lclavicle  0 -1.620099928e-014 -1.431250036e-014
lhumerus  -43.20240021 20.24970055 75.06790161
lradius  -3.342647508e-031 -1.138223034e-031 18.80450058
lwrist  -2.824900031e-030 1.412450015e-030 11.76319981
lhand  -1.522208093e-030 -21.89089966 22.84740067
lfingers  90 7.125020027 -90
lthumb  90.61603193 7.755020578 85.4441456
rclavicle  0 -1.620099928e-014 -1.431250036e-014
rhumerus  -21.34269905 7.660130024 -87.6631012
rradius  2.961276105e-031 1.923457269e-031 33.00519943
rwrist  2.824900031e-030 -4.943575054e-030 -12.35680008
rhand  1.570731925e-030 -25.9428997 18.57430077
rfingers  -90 -7.125020027 -90
rthumb  -89.60083768 -33.59330664 -89.2785978
rfemur  -1.574100018 4.680290222 28.73970032
rtibia  -0 0 29.02829933
rfoot  -4.735213905e-032 -21.22830009 -2.577009916
rtoes  -1.575397198 19.94038992 -85.38945295
lfemur  -25.56539917 0.5355640054 -19.33440018
ltibia  -0 0 60.35910034
lfoot  -0 -8.298239708 8.485859871
ltoes  -3.695914299 -19.66929668 -100.8636129
